<svg width="32" height="28" viewBox="0 0 32 28" fill="none" xmlns="http://www.w3.org/2000/svg">
<path fill-rule="evenodd" clip-rule="evenodd" d="M1.13951 0C0.837722 0.000753263 0.548693 0.119266 0.335202 0.329169C0.121685 0.539072 0.00127387 0.82355 4.06198e-07 1.12055C-0.000254678 1.41833 0.119641 1.70431 0.333164 1.91546C0.546936 2.12663 0.83673 2.24563 1.13956 2.24639H2.11405C2.9962 2.24639 3.73494 2.854 3.89768 3.7074L6.45479 17.1182C6.79918 18.9252 8.41729 20.2447 10.2854 20.2447H26.2853C28.1552 20.2447 29.7661 18.9006 30.0735 17.0853L31.984 5.8092C32.0401 5.48279 31.9472 5.14862 31.7304 4.89576C31.5133 4.64267 31.1942 4.49679 30.858 4.49654H6.37422L6.14667 3.29237C5.78391 1.38919 4.08137 0.000167225 2.11404 0.000167225L1.13951 0ZM6.80399 6.74716H29.5082L27.8207 16.7152C27.6944 17.461 27.0531 17.994 26.285 17.994H10.2851C9.50243 17.994 8.84323 17.4605 8.6991 16.7032L6.80399 6.74716ZM12.5711 21.3695C10.691 21.3695 9.14122 22.8948 9.14122 24.7454C9.14122 26.5959 10.6909 28.1212 12.5711 28.1212C14.4512 28.1212 16.0009 26.5959 16.0009 24.7454C16.0009 22.8949 14.4512 21.3695 12.5711 21.3695ZM23.9989 21.3695C22.1188 21.3695 20.5691 22.8948 20.5691 24.7454C20.5691 26.5959 22.1188 28.1212 23.9989 28.1212C25.879 28.1212 27.4288 26.5959 27.4288 24.7454C27.4288 22.8949 25.8791 21.3695 23.9989 21.3695ZM12.5711 23.6205C13.2157 23.6205 13.7139 24.1109 13.7139 24.7454C13.7139 25.3799 13.2157 25.8702 12.5711 25.8702C11.9264 25.8702 11.4282 25.3799 11.4282 24.7454C11.4282 24.1109 11.9264 23.6205 12.5711 23.6205ZM23.9989 23.6205C24.6436 23.6205 25.1418 24.1109 25.1418 24.7454C25.1418 25.3799 24.6436 25.8702 23.9989 25.8702C23.3543 25.8702 22.8561 25.3799 22.8561 24.7454C22.8561 24.1109 23.3543 23.6205 23.9989 23.6205Z" fill="black"/>
</svg>
