<svg width="20" height="20" viewBox="0 0 20 20" fill="none" xmlns="http://www.w3.org/2000/svg">
<path d="M10.1982 20C9.97546 19.9119 9.83686 19.7358 9.71311 19.5401C7.90634 16.6538 6.10452 13.7723 4.28785 10.9007C3.39684 9.48684 2.99094 7.9654 3.16419 6.30697C3.31764 4.83444 3.89185 3.53803 4.88186 2.41774C5.69862 1.49313 6.69358 0.818014 7.86179 0.407076C8.99535 0.010815 10.1586 -0.101704 11.3417 0.0939809C13.3563 0.421753 14.9552 1.42464 16.1036 3.07817C17.1778 4.62408 17.5441 6.351 17.2421 8.20511C17.0936 9.11504 16.757 9.95649 16.2769 10.7441C14.4998 13.6794 12.7178 16.6147 10.9457 19.5499C10.8269 19.7456 10.6932 19.9119 10.4754 19.9951C10.3814 20 10.2873 20 10.1982 20ZM10.3269 18.2731C10.3566 18.2291 10.3715 18.2095 10.3863 18.1899C12.0347 15.4748 13.688 12.7597 15.3215 10.0397C16.2175 8.54756 16.4155 6.94294 15.8908 5.28452C14.9899 2.4373 12.1238 0.73974 9.15375 1.26809C6.62923 1.71816 4.63931 3.81688 4.34725 6.35589C4.1839 7.76971 4.52545 9.06123 5.28281 10.2598C6.93118 12.8673 8.56469 15.4846 10.2081 18.1019C10.2428 18.1508 10.2774 18.2046 10.3269 18.2731Z" fill="black"/>
<path d="M10.2328 10.5435C8.26762 10.5386 6.67866 8.96338 6.68361 7.0261C6.68856 5.09371 8.29237 3.50867 10.2476 3.51356C12.2029 3.51845 13.8018 5.1035 13.7968 7.03588C13.7869 8.97805 12.193 10.5484 10.2328 10.5435ZM10.2328 9.37432C11.5446 9.37432 12.6039 8.3323 12.6088 7.03588C12.6138 5.73947 11.5545 4.68278 10.2476 4.67788C8.93093 4.67299 7.85677 5.7248 7.86172 7.0261C7.86172 8.3274 8.92103 9.37432 10.2328 9.37432Z" fill="black"/>
</svg>
