<svg width="90" height="22" viewBox="0 0 90 22" fill="none" xmlns="http://www.w3.org/2000/svg">
<path d="M1.92279 17.7569H5.89177V19.2435H0.0898438V9.5159H5.83404V11.0025H1.92279V13.6436H5.40106V15.1158H1.92279V17.7569Z" fill="black"/>
<path d="M17.2844 9.92001V11.6808C16.5628 11.2478 15.7931 11.0313 14.9752 11.0313C14.523 11.0313 14.167 11.1324 13.9072 11.3344C13.657 11.5365 13.5319 11.7963 13.5319 12.1138C13.5319 12.4313 13.6666 12.6959 13.9361 12.9076C14.2151 13.1096 14.6288 13.3357 15.1773 13.5859C15.5621 13.7591 15.8748 13.913 16.1154 14.0478C16.3559 14.1728 16.6157 14.3508 16.8948 14.5818C17.1834 14.8127 17.3951 15.0917 17.5298 15.4189C17.6741 15.7364 17.7463 16.102 17.7463 16.5157C17.7463 17.3817 17.4336 18.0745 16.8082 18.594C16.1924 19.104 15.3793 19.359 14.369 19.359C13.2722 19.359 12.3629 19.1521 11.6413 18.7384V16.8766C12.4687 17.4731 13.3732 17.7714 14.3546 17.7714C14.7972 17.7714 15.1532 17.6655 15.4226 17.4539C15.692 17.2326 15.8267 16.9391 15.8267 16.5735C15.8267 16.4003 15.7931 16.2463 15.7257 16.1116C15.6584 15.9769 15.5188 15.8422 15.3072 15.7075C15.1051 15.5728 14.9463 15.4766 14.8309 15.4189C14.725 15.3611 14.4989 15.2553 14.1525 15.1013C14.0563 15.0532 13.9842 15.0195 13.9361 15.0003C13.5801 14.8367 13.2914 14.6924 13.0701 14.5673C12.8488 14.4326 12.6083 14.2546 12.3485 14.0333C12.0887 13.812 11.8914 13.5474 11.7567 13.2395C11.6316 12.9316 11.5691 12.5804 11.5691 12.1859C11.5691 11.3585 11.8722 10.6946 12.4784 10.1942C13.0942 9.6939 13.9072 9.44373 14.9175 9.44373C15.8315 9.44373 16.6205 9.60249 17.2844 9.92001Z" fill="black"/>
<path d="M22.6906 19.359C21.5841 19.359 20.7181 19.0126 20.0927 18.3198C19.4769 17.6271 19.169 16.7418 19.169 15.6642C19.169 14.5481 19.4914 13.6292 20.136 12.9076C20.7807 12.1763 21.6322 11.8107 22.6906 11.8107C23.8163 11.8107 24.6871 12.1667 25.3029 12.8787C25.9187 13.5811 26.2266 14.4759 26.2266 15.5632C26.2266 16.6697 25.9139 17.5789 25.2885 18.291C24.6727 19.003 23.8067 19.359 22.6906 19.359ZM22.6906 13.2251C22.1421 13.2251 21.7188 13.4512 21.4205 13.9034C21.1319 14.3556 20.9875 14.9233 20.9875 15.6065C20.9875 16.28 21.1367 16.8429 21.4349 17.2951C21.7332 17.7473 22.1566 17.9734 22.705 17.9734C23.2727 17.9734 23.7009 17.7521 23.9895 17.3095C24.2782 16.8669 24.4225 16.3041 24.4225 15.6209C24.4225 14.9185 24.283 14.346 24.004 13.9034C23.7249 13.4512 23.2871 13.2251 22.6906 13.2251Z" fill="black"/>
<path d="M32.078 9.01075V10.4685C31.8278 10.3722 31.5873 10.3241 31.3564 10.3241C30.654 10.3241 30.3028 10.7186 30.3028 11.5076V11.9262H31.7605V13.2251H30.3028V19.2435H28.5709V13.2251H27.5029V11.9262H28.5709V11.4932C28.5709 10.6753 28.797 10.0355 29.2492 9.57363C29.7014 9.11178 30.3269 8.88086 31.1255 8.88086C31.4911 8.88086 31.8086 8.92416 32.078 9.01075Z" fill="black"/>
<path d="M35.3087 13.2251V16.9487C35.3087 17.2566 35.3905 17.4923 35.554 17.6559C35.7176 17.8099 35.9437 17.8868 36.2324 17.8868C36.598 17.8868 36.9348 17.7858 37.2427 17.5838V19.0703C36.9059 19.2339 36.4729 19.3157 35.9437 19.3157C34.3657 19.3157 33.5768 18.5171 33.5768 16.9198V13.2251H32.4799V11.9262H33.5768V10.1654H35.3087V11.9262H37.1272V13.2251H35.3087Z" fill="black"/>
<path d="M47.1132 13.5715V18.2477H47.0988L47.1132 18.4064C46.228 19.0414 45.1215 19.359 43.7937 19.359C42.2542 19.359 41.0082 18.9116 40.0557 18.0167C39.1127 17.1219 38.6413 15.9048 38.6413 14.3653C38.6413 12.8643 39.1272 11.6519 40.099 10.7282C41.0804 9.80455 42.3168 9.3427 43.8082 9.3427C44.9147 9.3427 45.8624 9.54957 46.6514 9.96331V11.8251C45.7662 11.2959 44.8281 11.0313 43.837 11.0313C42.8652 11.0313 42.081 11.3344 41.4845 11.9406C40.8879 12.5468 40.5897 13.355 40.5897 14.3653C40.5897 15.3948 40.8783 16.2078 41.4556 16.8044C42.0426 17.3913 42.846 17.6848 43.8659 17.6848C44.3662 17.6848 44.8521 17.5982 45.3236 17.425V15.1302H43.5339V13.5715H47.1132Z" fill="black"/>
<path d="M50.9864 11.9262V13.2251C51.3231 12.3206 51.9389 11.8684 52.8338 11.8684C53.0358 11.8684 53.1994 11.8829 53.3245 11.9117V13.5859C53.1032 13.4897 52.8578 13.4416 52.5884 13.4416C52.1169 13.4416 51.7321 13.634 51.4338 14.0189C51.1355 14.4038 50.9864 14.8848 50.9864 15.4622V19.2435H49.24L49.2545 11.9262H50.9864Z" fill="black"/>
<path d="M57.7631 19.359C56.6566 19.359 55.7906 19.0126 55.1652 18.3198C54.5494 17.6271 54.2415 16.7418 54.2415 15.6642C54.2415 14.5481 54.5638 13.6292 55.2085 12.9076C55.8531 12.1763 56.7047 11.8107 57.7631 11.8107C58.8888 11.8107 59.7596 12.1667 60.3754 12.8787C60.9912 13.5811 61.2991 14.4759 61.2991 15.5632C61.2991 16.6697 60.9864 17.5789 60.3609 18.291C59.7451 19.003 58.8792 19.359 57.7631 19.359ZM57.7631 13.2251C57.2146 13.2251 56.7913 13.4512 56.493 13.9034C56.2043 14.3556 56.06 14.9233 56.06 15.6065C56.06 16.28 56.2091 16.8429 56.5074 17.2951C56.8057 17.7473 57.2291 17.9734 57.7775 17.9734C58.3452 17.9734 58.7733 17.7521 59.062 17.3095C59.3507 16.8669 59.495 16.3041 59.495 15.6209C59.495 14.9185 59.3555 14.346 59.0764 13.9034C58.7974 13.4512 58.3596 13.2251 57.7631 13.2251Z" fill="black"/>
<path d="M67.6123 11.9262H69.3587V19.2435H67.6123V18.0456C67.2275 18.8923 66.477 19.3157 65.3608 19.3157C64.62 19.3157 64.0427 19.104 63.6289 18.6806C63.2152 18.2573 63.0083 17.6559 63.0083 16.8766V11.9262H64.7402V16.4724C64.7402 16.9343 64.8509 17.2855 65.0722 17.526C65.3031 17.7666 65.6158 17.8868 66.0103 17.8868C66.5106 17.8868 66.9003 17.7185 67.1794 17.3817C67.468 17.0449 67.6123 16.535 67.6123 15.8518V11.9262Z" fill="black"/>
<path d="M75.0802 17.858C75.5998 17.858 76.0232 17.6607 76.3503 17.2662C76.6774 16.8621 76.841 16.2992 76.841 15.5776C76.841 14.856 76.6774 14.2979 76.3503 13.9034C76.0232 13.4993 75.6094 13.2973 75.1091 13.2973C74.6088 13.2973 74.1758 13.4849 73.8102 13.8601C73.4445 14.2354 73.2617 14.7934 73.2617 15.5343C73.2617 16.2752 73.4397 16.8477 73.7957 17.2518C74.1517 17.6559 74.5799 17.858 75.0802 17.858ZM73.2617 11.9262V13.0519C73.7813 12.234 74.527 11.8251 75.4988 11.8251C76.4513 11.8251 77.2066 12.1667 77.7647 12.8498C78.3324 13.533 78.6162 14.4326 78.6162 15.5487C78.6162 16.6456 78.3324 17.5549 77.7647 18.2765C77.2066 18.9885 76.4465 19.3445 75.4843 19.3445C74.5029 19.3445 73.762 18.9452 73.2617 18.1466V22.0001H71.5298V11.9262H73.2617Z" fill="black"/>
<circle cx="8.75145" cy="14.7339" r="1.5034" fill="#FF5C44"/>
<path d="M85.5393 2.98051C85.9552 2.78796 86.4353 2.54669 86.8284 2.78251C86.9513 2.85631 87.055 2.95994 87.1288 3.08292C87.3646 3.47593 87.1233 3.95606 86.9308 4.37198L83.5407 11.6948C83.3481 12.1108 83.2437 12.6294 82.8421 12.8504C82.613 12.9765 82.3314 12.994 82.0884 12.8959C81.6813 12.7316 81.5751 12.231 81.4661 11.8058L80.9495 9.79057C80.8968 9.58501 80.8412 9.37018 80.6912 9.22012C80.5411 9.07007 80.3263 9.0145 80.1207 8.9618L78.1055 8.44515C77.6803 8.33612 77.1796 8.23001 77.0153 7.8229C76.9172 7.57988 76.9347 7.29831 77.0609 7.06916C77.2818 6.66762 77.8005 6.56316 78.2164 6.37061L85.5393 2.98051Z" fill="#FF5C44"/>
</svg>
