<svg width="134" height="30" viewBox="0 0 134 30" fill="none" xmlns="http://www.w3.org/2000/svg">
<path d="M14.5858 30C22.6413 30 29.1716 23.2843 29.1716 15C29.1716 6.71573 22.6413 0 14.5858 0C6.53028 0 0 6.71573 0 15C0 23.2843 6.53028 30 14.5858 30Z" fill="#FFCD11"/>
<path d="M14.5858 3.52941C8.40828 3.52941 3.43195 8.64706 3.43195 15C3.43195 21.3529 8.40828 26.4706 14.5858 26.4706C20.7633 26.4706 25.7396 21.3529 25.7396 15C25.7396 8.64706 20.7633 3.52941 14.5858 3.52941ZM14.5858 5.38235C16.645 5.38235 18.5325 6.08824 20.0769 7.14706L18.8757 10.6765H10.2101L9.00888 7.32353C10.6391 6.08824 12.5266 5.38235 14.5858 5.38235ZM12.355 16.6765H16.8166L14.5858 23.1176L12.355 16.6765ZM11.5828 14.4706L11.068 12.9706H18.0178L17.503 14.4706H11.5828ZM5.23373 15C5.23373 12.7059 6.00592 10.6765 7.2929 9L12.8698 24.4412C8.57988 23.5588 5.23373 19.6765 5.23373 15ZM16.216 24.4412L21.7071 8.82353C23.0799 10.5 23.9379 12.6176 23.9379 15C23.9379 19.6765 20.5917 23.6471 16.216 24.4412Z" fill="white"/>
<path d="M36.0355 8.55882H39.8107L42.9852 16.5H43.1568L46.3314 8.55882H50.1065V21.3529H47.1894V13.5H47.1036L44.1006 21.2647H42.0414L39.0385 13.4118H38.9527V21.3529H36.0355V8.55882Z" fill="#333333"/>
<path d="M51.9083 8.55882H60.574V11.1176H54.9112V13.7647H60.145V16.3235H54.9112V18.9706H60.574V21.5294H51.9083V8.55882Z" fill="#333333"/>
<path d="M62.0325 11.1176V8.55882H72.5858V11.1176H68.8106V21.4412H65.8077V11.1176H62.0325Z" fill="#333333"/>
<path d="M80.2219 8.55882H76.1894L71.9852 21.3529H75.2456L76.1035 18.6176H80.3935L81.2515 21.3529H84.5118L80.2219 8.55882ZM76.7899 16.3235L78.1627 11.7353H78.2485L79.6213 16.3235H76.7899Z" fill="#333333"/>
<path d="M92.1479 12.4412C92.1479 12 91.8905 11.6471 91.6331 11.3824C91.2899 11.1176 90.8609 11.0294 90.2604 11.0294C89.8314 11.0294 89.574 11.1176 89.3166 11.2059C89.0592 11.2941 88.8876 11.4706 88.716 11.6471C88.5444 11.8235 88.5444 12 88.5444 12.2647C88.5444 12.4412 88.5444 12.6176 88.6302 12.7941C88.716 12.9706 88.8018 13.0588 88.9734 13.1471C89.145 13.2353 89.3166 13.3235 89.574 13.4118C89.8314 13.5 90.0888 13.5882 90.3462 13.5882L91.3757 13.8529C91.9763 14.0294 92.5769 14.2059 93.0059 14.3824C93.5207 14.6471 93.8639 14.9118 94.2071 15.1765C94.5503 15.5294 94.8077 15.8824 94.9793 16.2353C95.1509 16.6765 95.2367 17.1176 95.2367 17.6471C95.2367 18.4412 95.0651 19.1471 94.6361 19.7647C94.2071 20.3824 93.6923 20.8235 92.9201 21.0882C92.1479 21.4412 91.2899 21.5294 90.2604 21.5294C89.2308 21.5294 88.287 21.3529 87.5148 21.0882C86.7426 20.7353 86.142 20.2941 85.713 19.5882C85.284 18.9706 85.0266 18.0882 85.0266 17.1176H87.9438C87.9438 17.5588 88.1154 17.9118 88.287 18.1765C88.4586 18.4412 88.716 18.6176 89.0592 18.7941C89.4024 18.9706 89.7456 18.9706 90.2604 18.9706C90.6893 18.9706 91.0325 18.8824 91.2899 18.7941C91.5473 18.7059 91.8047 18.5294 91.9763 18.3529C92.1479 18.1765 92.2337 17.9118 92.2337 17.6471C92.2337 17.3824 92.1479 17.2059 91.9763 17.0294C91.8047 16.8529 91.6331 16.6765 91.2899 16.5882C91.0325 16.5 90.6036 16.3235 90.1746 16.2353L88.8876 15.8824C87.7722 15.6176 86.9142 15.1765 86.3136 14.6471C85.713 14.1176 85.3698 13.3235 85.3698 12.3529C85.3698 11.5588 85.5414 10.8529 85.9704 10.2353C86.3994 9.61765 87 9.17647 87.6864 8.82353C88.4586 8.47059 89.2308 8.29412 90.1746 8.29412C91.1183 8.29412 91.9763 8.47059 92.6627 8.82353C93.3491 9.17647 93.9497 9.61765 94.2929 10.2353C94.7219 10.8529 94.8935 11.5588 94.8935 12.3529H92.1479V12.4412Z" fill="#333333"/>
<path d="M108.021 13.2353H104.932C104.932 12.8824 104.846 12.6176 104.675 12.3529C104.589 12.0882 104.417 11.9118 104.16 11.6471C103.988 11.4706 103.731 11.2941 103.388 11.2059C103.13 11.1176 102.787 11.0294 102.444 11.0294C101.843 11.0294 101.328 11.2059 100.899 11.4706C100.47 11.7353 100.127 12.1765 99.8698 12.7941C99.6124 13.4118 99.5266 14.0294 99.5266 14.9118C99.5266 15.7941 99.6124 16.5 99.8698 17.0294C100.127 17.5588 100.47 18 100.899 18.3529C101.328 18.6176 101.843 18.7941 102.444 18.7941C102.787 18.7941 103.044 18.7941 103.388 18.7059C103.645 18.6176 103.902 18.5294 104.074 18.3529C104.246 18.1765 104.417 18 104.589 17.7353C104.76 17.4706 104.846 17.2059 104.846 16.9412H107.935C107.849 17.4706 107.763 18.0882 107.42 18.6176C107.163 19.1471 106.82 19.6765 106.305 20.1176C105.876 20.5588 105.275 20.9118 104.589 21.1765C103.902 21.4412 103.13 21.6176 102.272 21.6176C101.157 21.6176 100.127 21.3529 99.2692 20.8235C98.4112 20.2941 97.6391 19.5882 97.1243 18.6176C96.6095 17.6471 96.3521 16.4118 96.3521 15C96.3521 13.5882 96.6095 12.3529 97.1243 11.3824C97.6391 10.4118 98.3254 9.61765 99.2692 9.17647C100.127 8.64706 101.157 8.38235 102.272 8.38235C103.044 8.38235 103.731 8.47059 104.331 8.73529C104.932 8.91176 105.533 9.26471 106.047 9.70588C106.562 10.1471 106.905 10.5882 107.249 11.2059C107.763 11.8235 107.935 12.4412 108.021 13.2353Z" fill="#333333"/>
<path d="M117.115 8.55882H113.083L108.879 21.3529H112.139L112.997 18.6176H117.287L118.145 21.3529H121.405L117.115 8.55882ZM113.683 16.3235L115.056 11.7353H115.142L116.515 16.3235H113.683Z" fill="#333333"/>
<path d="M133.331 8.55882V21.3529H130.757L125.781 13.9412H125.695V21.3529H122.692V8.55882H125.266L130.157 15.9706H130.243V8.55882H133.331Z" fill="#333333"/>
</svg>
